<svg height="482pt" viewBox="-1 0 482 482.112" width="482pt" xmlns="http://www.w3.org/2000/svg"><path d="m40.054688 480v-408c0-17.671875 14.328124-32 32-32h336c17.675781 0 32 14.328125 32 32v408zm0 0" fill="#0093ba"/><path d="m96.054688 80h160c8.839843 0 16 7.164062 16 16v160c0 8.835938-7.160157 16-16 16h-160c-8.835938 0-16-7.164062-16-16v-160c0-8.835938 7.164062-16 16-16zm0 0" fill="#06687f"/><path d="m200.054688 192h32c4.417968 0 8 3.582031 8 8v32c0 4.417969-3.582032 8-8 8h-32c-4.417969 0-8-3.582031-8-8v-32c0-4.417969 3.582031-8 8-8zm0 0" fill="#fde700"/><path d="m304.054688 80h16v16h-16zm0 0" fill="#a1dbe8"/><path d="m159.34375 480c-4.148438-15.132812-12.175781-28.921875-23.289062-40l38.203124-38.199219c15.460938-15.464843 15.460938-40.535156 0-56-15.464843-15.464843-40.535156-15.464843-56 0l-67.457031 67.457031c-12.003906 12-18.746093 28.28125-18.746093 45.253907v21.488281zm0 0" fill="#047fa7"/><path d="m360.054688 320h80c17.675781 0 32 14.328125 32 32s-14.324219 32-32 32h-80c-17.671876 0-32-14.328125-32-32s14.328124-32 32-32zm0 0" fill="#f5be9a"/><path d="m472.054688 352c-.03125-2.703125-.410157-5.390625-1.125-8-3.617188 14.101562-16.316407 23.972656-30.875 24h-88c-4.417969 0-8 3.582031-8 8s3.582031 8 8 8h81.546874c2.445313 0 4.796876 0 7.144532-.070312 17.386718-.351563 31.300781-14.539063 31.308594-31.929688zm0 0" fill="#ec917f"/><path d="m360.054688 384h80c17.675781 0 32 14.328125 32 32s-14.324219 32-32 32h-80c-17.671876 0-32-14.328125-32-32s14.328124-32 32-32zm0 0" fill="#f5be9a"/><path d="m472.054688 416c-.03125-2.703125-.410157-5.390625-1.125-8-3.617188 14.101562-16.316407 23.972656-30.875 24h-88c-4.417969 0-8 3.582031-8 8s3.582031 8 8 8h81.546874c2.445313 0 4.796876 0 7.144532-.070312 17.386718-.351563 31.300781-14.539063 31.308594-31.929688zm0 0" fill="#ec917f"/><path d="m328.054688 480c0-17.671875 14.328124-32 32-32h80c17.675781 0 32 14.328125 32 32zm0 0" fill="#f5be9a"/><path d="m135.34375 480c-4.148438-15.132812-12.175781-28.921875-23.289062-40l60-60c15.464843-15.464844 15.464843-40.535156 0-56-15.460938-15.460938-40.535157-15.460938-56 0l-89.253907 89.257812c-12.003906 12-18.746093 28.28125-18.746093 45.253907v21.488281zm0 0" fill="#f5be9a"/><path d="m168.054688 136c0 17.671875-14.324219 32-32 32-17.671876 0-32-14.328125-32-32s14.328124-32 32-32c17.675781 0 32 14.328125 32 32zm0 0" fill="#7ecde7"/><path d="m152.054688 136c0 8.835938-7.160157 16-16 16-8.835938 0-16-7.164062-16-16s7.164062-16 16-16c8.839843 0 16 7.164062 16 16zm0 0" fill="#a0deeb"/><path d="m144.054688 136c0 4.417969-3.582032 8-8 8-4.417969 0-8-3.582031-8-8s3.582031-8 8-8c4.417968 0 8 3.582031 8 8zm0 0" fill="#7ecce6"/><path d="m133.226562 121.464844c-2.425781-2.425782-7.015624-1.773438-10.25 1.460937-3.230468 3.230469-3.886718 7.820313-1.457031 10.25 2.425781 2.425781 7.015625 1.773438 10.25-1.460937s3.886719-7.820313 1.457031-10.25zm0 0" fill="#e9f1f2"/><path d="m248.054688 136c0 17.671875-14.324219 32-32 32-17.671876 0-32-14.328125-32-32s14.328124-32 32-32c17.675781 0 32 14.328125 32 32zm0 0" fill="#7ecde7"/><path d="m232.054688 136c0 8.835938-7.160157 16-16 16-8.835938 0-16-7.164062-16-16s7.164062-16 16-16c8.839843 0 16 7.164062 16 16zm0 0" fill="#a0deeb"/><path d="m224.054688 136c0 4.417969-3.582032 8-8 8-4.417969 0-8-3.582031-8-8s3.582031-8 8-8c4.417968 0 8 3.582031 8 8zm0 0" fill="#7ecce6"/><path d="m213.230469 121.464844c-2.429688-2.425782-7.019531-1.773438-10.25 1.460937-3.234375 3.230469-3.890625 7.820313-1.460938 10.25 2.425781 2.425781 7.015625 1.773438 10.25-1.460937s3.886719-7.824219 1.460938-10.25zm0 0" fill="#e9f1f2"/><path d="m168.054688 216c0 17.671875-14.324219 32-32 32-17.671876 0-32-14.328125-32-32s14.328124-32 32-32c17.675781 0 32 14.328125 32 32zm0 0" fill="#7ecde7"/><path d="m152.054688 216c0 8.835938-7.160157 16-16 16-8.835938 0-16-7.164062-16-16s7.164062-16 16-16c8.839843 0 16 7.164062 16 16zm0 0" fill="#a0deeb"/><path d="m144.054688 216c0 4.417969-3.582032 8-8 8-4.417969 0-8-3.582031-8-8s3.582031-8 8-8c4.417968 0 8 3.582031 8 8zm0 0" fill="#7ecce6"/><path d="m133.230469 201.464844c-2.429688-2.425782-7.019531-1.773438-10.25 1.460937-3.234375 3.234375-3.890625 7.820313-1.460938 10.25 2.425781 2.425781 7.015625 1.773438 10.25-1.460937s3.886719-7.820313 1.460938-10.25zm0 0" fill="#e9f1f2"/><path d="m204.054688 204h24c2.210937 0 4 1.789062 4 4s-1.789063 4-4 4h-24c-2.207032 0-4-1.789062-4-4s1.792968-4 4-4zm0 0" fill="#efd015"/><path d="m204.054688 220h24c2.210937 0 4 1.789062 4 4s-1.789063 4-4 4h-24c-2.207032 0-4-1.789062-4-4s1.792968-4 4-4zm0 0" fill="#efd015"/><path d="m213.230469 201.464844c-2.429688-2.425782-7.019531-1.773438-10.25 1.460937-3.234375 3.230469-3.886719 7.820313-1.460938 10.25 2.425781 2.425781 7.015625 1.773438 10.25-1.460937s3.886719-7.820313 1.460938-10.25zm0 0" fill="#faf5b9"/><path d="m136.054688 104c-17.671876 0-32 14.328125-32 32s14.328124 32 32 32c17.675781 0 32-14.328125 32-32s-14.324219-32-32-32zm0 48c-8.835938 0-16-7.164062-16-16s7.164062-16 16-16c8.839843 0 16 7.164062 16 16s-7.160157 16-16 16zm0 0"/><path d="m136.054688 184c-17.671876 0-32 14.328125-32 32s14.328124 32 32 32c17.675781 0 32-14.328125 32-32s-14.324219-32-32-32zm0 48c-8.835938 0-16-7.164062-16-16s7.164062-16 16-16c8.839843 0 16 7.164062 16 16s-7.160157 16-16 16zm0 0"/><path d="m216.054688 104c-17.671876 0-32 14.328125-32 32s14.328124 32 32 32c17.675781 0 32-14.328125 32-32s-14.324219-32-32-32zm0 48c-8.835938 0-16-7.164062-16-16s7.164062-16 16-16c8.839843 0 16 7.164062 16 16s-7.160157 16-16 16zm0 0"/><path d="m232.054688 184h-32c-8.835938 0-16 7.164062-16 16v32c0 8.835938 7.164062 16 16 16h32c8.839843 0 16-7.164062 16-16v-32c0-8.835938-7.160157-16-16-16zm-32 48v-32h32v32zm0 0"/><path d="m280.054688 96c0-13.253906-10.742188-24-24-24h-160c-13.253907 0-24 10.746094-24 24v160c0 13.253906 10.746093 24 24 24h160c13.257812 0 24-10.746094 24-24zm-16 160c0 4.417969-3.582032 8-8 8h-160c-4.417969 0-8-3.582031-8-8v-160c0-4.417969 3.582031-8 8-8h160c4.417968 0 8 3.582031 8 8zm0 0"/><path d="m304.054688 80h16v16h-16zm0 0"/><path d="m336.054688 80h72v16h-72zm0 0"/><path d="m304.054688 112h80v16h-80zm0 0"/><path d="m480.054688 352c-.023438-19-13.386719-35.371094-32-39.199219v-240.800781c-.023438-22.082031-17.917969-39.972656-40-40h-336c-22.078126.027344-39.972657 17.917969-40 40v324.6875l-10.910157 10.914062c-13.546875 13.46875-21.14062475 31.796876-21.0898435 50.902344v21.496094h16.0000005v-21.496094c-.039063-14.859375 5.867187-29.113281 16.402343-39.59375l89.253907-89.253906c7.964843-8.078125 19.648437-11.269531 30.609374-8.359375 10.964844 2.910156 19.527344 11.472656 22.4375 22.4375 2.910157 10.964844-.277343 22.644531-8.359374 30.609375l-60 60c-3.121094 3.125-3.121094 8.1875 0 11.3125 10.117187 10.109375 17.429687 22.671875 21.226562 36.457031l15.429688-4.226562c-3.808594-13.855469-10.605469-26.710938-19.910157-37.664063l54.566407-54.566406c18.222656-18.648438 18.046874-48.488281-.386719-66.921875-18.4375-18.4375-48.273438-18.609375-66.925781-.390625l-62.34375 62.34375v-308.6875c0-13.253906 10.746093-24 24-24h336c13.257812 0 24 10.746094 24 24v240h-72c-17.25-.050781-32.582032 11-37.984376 27.386719-5.40625 16.382812.335938 34.386719 14.234376 44.613281-10.214844 7.460938-16.25 19.351562-16.25 32s6.035156 24.539062 16.25 32c-10.183594 7.488281-16.214844 19.359375-16.25 32h16c0-13.253906 10.746093-24 24-24h80c13.257812 0 24 10.746094 24 24h16c-.035157-12.640625-6.0625-24.511719-16.246094-32 10.210937-7.460938 16.25-19.351562 16.25-32s-6.039063-24.539062-16.25-32c10.183594-7.488281 16.210937-19.359375 16.246094-32zm-16 64c0 13.253906-10.742188 24-24 24h-80c-13.253907 0-24-10.746094-24-24s10.746093-24 24-24h80c13.257812 0 24 10.746094 24 24zm-24-40h-80c-13.253907 0-24-10.746094-24-24s10.746093-24 24-24h80c13.257812 0 24 10.746094 24 24s-10.742188 24-24 24zm0 0"/><path d="m192.054688 0h160v16h-160zm0 0"/><path d="m368.054688 0h16v16h-16zm0 0"/></svg>