<?xml version="1.0" encoding="iso-8859-1"?>
<!-- Generator: Adobe Illustrator 19.0.0, SVG Export Plug-In . SVG Version: 6.00 Build 0)  -->
<svg xmlns="http://www.w3.org/2000/svg" xmlns:xlink="http://www.w3.org/1999/xlink" version="1.1" id="Capa_1" x="0px" y="0px" viewBox="0 0 512.002 512.002" style="enable-background:new 0 0 512.002 512.002;" xml:space="preserve" width="512" height="512">
<g>
	<polygon style="fill:#CCCCCC;" points="504.501,487.501 474.501,487.501 384.501,247.501 474.501,7.501 504.501,7.501  "/>
	<polygon style="fill:#EBEBEB;" points="222.495,7.501 222.495,487.501 474.501,487.501 474.501,457.501 459.501,397.501    474.501,337.501 474.501,307.501 459.501,247.501 474.501,187.501 474.501,157.501 459.501,97.501 474.501,37.501 474.501,7.501     "/>
	<rect x="444.501" y="37.501" style="fill:#4F4F4F;" width="30" height="120"/>
	<rect x="444.501" y="187.501" style="fill:#4F4F4F;" width="30" height="120"/>
	<rect x="444.501" y="337.501" style="fill:#4F4F4F;" width="30" height="120"/>
	<polygon style="fill:#B3B3B3;" points="414.501,457.501 384.501,457.501 294.501,397.501 384.501,337.501 414.501,337.501  "/>
	<polygon style="fill:#CCCCCC;" points="384.501,457.501 252.495,457.501 252.495,337.501 384.501,337.501 384.501,397.501    354.501,412.501 384.501,427.501  "/>
	<polygon style="fill:#FF4128;" points="384.501,427.501 354.501,427.501 324.501,412.501 354.501,397.501 384.501,397.501  "/>
	<rect x="282.495" y="397.501" style="fill:#FF6337;" width="72.006" height="30"/>
	<polygon style="fill:#B3B3B3;" points="414.501,307.501 384.501,307.501 294.501,247.501 384.501,187.501 414.501,187.501  "/>
	<polygon style="fill:#CCCCCC;" points="384.501,307.501 252.495,307.501 252.495,187.501 384.501,187.501 384.501,247.501    354.501,262.501 384.501,277.501  "/>
	<polygon style="fill:#FF4128;" points="384.501,277.501 354.501,277.501 324.501,262.501 354.501,247.501 384.501,247.501  "/>
	<rect x="282.495" y="247.501" style="fill:#FF6337;" width="72.006" height="30"/>
	<polygon style="fill:#B3B3B3;" points="414.501,157.501 384.501,157.501 294.501,97.501 384.501,37.501 414.501,37.501  "/>
	<polygon style="fill:#CCCCCC;" points="384.501,157.501 252.495,157.501 252.495,37.501 384.501,37.501 384.501,97.501    354.501,112.501 384.501,127.501  "/>
	<polygon style="fill:#FF4128;" points="384.501,127.501 354.501,127.501 324.501,112.501 354.501,97.501 384.501,97.501  "/>
	<rect x="282.495" y="97.501" style="fill:#FF6337;" width="72.006" height="30"/>
	<path style="fill:#C27749;" d="M72.495,102.491c-7.488,0-14.005,4.122-17.433,10.215c-7.124,1.165-12.567,7.331-12.567,14.785   c0,8.284,6.716,15,15,15h60v-40H72.495z"/>
	<path style="fill:#A45E43;" d="M179.928,112.705c-3.427-6.093-9.945-10.215-17.433-10.215h-45v40h60c8.284,0,15-6.716,15-15   C192.495,120.037,187.052,113.87,179.928,112.705z"/>
	<polygon style="fill:#FFCB63;" points="117.495,397.501 147.495,397.501 162.495,382.501 162.495,307.501 87.495,307.501  "/>
	<polygon style="fill:#FFE2A8;" points="117.495,397.501 87.495,397.501 72.495,382.501 72.495,307.501 117.495,307.501  "/>
	<polygon style="fill:#85453D;" points="117.495,352.501 162.495,352.501 162.495,232.501 87.495,232.501  "/>
	<rect x="72.495" y="247.501" style="fill:#A45E43;" width="45" height="105"/>
	<polygon style="fill:#FFFFFF;" points="117.495,262.489 87.495,172.491 147.495,172.491  "/>
	<polygon style="fill:#FF4128;" points="147.495,172.491 117.495,172.491 87.495,217.49 117.495,262.489 162.495,262.501  "/>
	<polygon style="fill:#FF6337;" points="117.495,172.491 87.495,172.491 72.495,262.501 117.495,262.489  "/>
	<path style="fill:#FFF0D3;" d="M77.501,172.491c-11.046,0-20,8.965-20,20.011l-0.006,205h30v-225.01H77.501z"/>
	<path style="fill:#FFE2A8;" d="M157.495,172.491h-10v225.01h30v-205C177.495,181.456,168.54,172.491,157.495,172.491z"/>
	<path style="fill:#FFB4A9;" d="M161.067,86.205l-3.169-13.714l-40.403-30v100c24.853,0,45-20.147,45-45   C162.495,93.593,161.998,89.811,161.067,86.205z"/>
	<path style="fill:#FFD9D4;" d="M132.018,86.205l-3.206-41.238L77.092,72.491l-3.169,13.714c-0.931,3.607-1.428,7.388-1.428,11.286   c0,24.853,20.147,45,45,45c8.284,0,15-20.147,15-45C132.495,93.593,132.329,89.811,132.018,86.205z"/>
	<polygon style="fill:#FFF0D3;" points="147.495,27.491 127.495,27.491 114.467,49.991 131.21,72.491 157.897,72.491  "/>
	<polygon style="fill:#FFFFFF;" points="127.495,27.491 87.495,27.491 77.092,72.491 131.21,72.491  "/>
	<path d="M184.601,106.149c-3.647-4.927-8.825-8.463-14.648-10.112c-0.096-3.424-0.512-6.861-1.284-10.256L154.802,25.8   c-0.787-3.401-3.816-5.811-7.308-5.811h-60c-3.491,0-6.521,2.409-7.308,5.811L66.314,85.807c-0.767,3.374-1.183,6.808-1.279,10.23   c-5.822,1.65-11,5.185-14.647,10.112c-9.1,2.997-15.395,11.479-15.395,21.341c0,12.407,10.094,22.5,22.5,22.5h120   c12.406,0,22.5-10.093,22.5-22.5C199.994,117.627,193.7,109.146,184.601,106.149z M117.494,134.99c-20.678,0-37.5-16.822-37.5-37.5   c0-2.783,0.318-5.594,0.941-8.33l2.12-9.17h68.878l2.114,9.144c0.628,2.759,0.946,5.57,0.946,8.356   C154.994,118.167,138.172,134.99,117.494,134.99z M93.458,34.99h48.072l6.936,30H86.523L93.458,34.99z M57.494,134.99   c-4.136,0-7.5-3.364-7.5-7.5c0-3.684,2.641-6.789,6.278-7.384c2.248-0.368,4.208-1.738,5.325-3.724   c1.239-2.202,3.089-3.937,5.265-5.041c2.494,9.104,7.378,17.227,13.94,23.648H57.494z M177.494,134.99h-23.308   c6.562-6.422,11.446-14.544,13.94-23.649c2.176,1.104,4.026,2.839,5.266,5.041c1.117,1.986,3.077,3.356,5.326,3.724   c3.637,0.595,6.276,3.7,6.276,7.384C184.994,131.625,181.63,134.99,177.494,134.99z"/>
	<path d="M157.495,164.99h-80c-12.705,0-23.42,8.665-26.563,20.397C22.31,188.658,0.001,213.017,0.001,242.5   c0,29.16,21.824,53.303,49.994,56.994V397.5c0,4.142,3.357,7.5,7.5,7.5h22.499v84.094l-24.872,8.291   c-3.93,1.31-6.053,5.557-4.743,9.487c1.048,3.143,3.974,5.13,7.114,5.13c0.786,0,1.586-0.125,2.373-0.387l30-10   c3.063-1.021,5.128-3.887,5.128-7.115V405h45v89.5c0,3.228,2.065,6.094,5.128,7.115l30,10c0.787,0.262,1.587,0.387,2.373,0.387   c3.141,0,6.066-1.988,7.114-5.13c1.31-3.93-0.813-8.177-4.743-9.487l-24.872-8.291V405h22.501c4.143,0,7.5-3.358,7.5-7.5v-205   C184.995,177.331,172.658,164.99,157.495,164.99z M94.994,270h45v75h-45V270z M139.994,255h-45v-75.01h45V255z M15.001,242.5   c0-20.873,15.129-38.266,34.994-41.823v83.646C30.13,280.767,15.001,263.373,15.001,242.5z M64.995,390v-97.383   c0.001-0.039,0.006-0.077,0.006-0.116s-0.005-0.077-0.006-0.116v-99.768c0.001-0.039,0.006-0.077,0.006-0.116   c0-0.02-0.003-0.039-0.003-0.058c0.032-6.872,5.624-12.453,12.497-12.453h2.499v172.394c-0.001,0.039-0.006,0.077-0.006,0.116   s0.005,0.077,0.006,0.116V390H64.995z M94.994,390v-30h45v30H94.994z M169.995,390h-15.001V179.99h2.501   c6.893,0,12.5,5.612,12.5,12.51V390z"/>
	<path d="M504.501,0H222.494c-4.143,0-7.5,3.358-7.5,7.5v497c0,4.142,3.357,7.5,7.5,7.5s7.5-3.358,7.5-7.5V495h267.007v9.5   c0,4.142,3.357,7.5,7.5,7.5s7.5-3.358,7.5-7.5V7.5C512.001,3.358,508.644,0,504.501,0z M229.994,480V15h267.007v465H229.994z"/>
	<path d="M414.501,30H252.495c-4.143,0-7.5,3.358-7.5,7.5v120c0,4.142,3.357,7.5,7.5,7.5h162.006c4.143,0,7.5-3.358,7.5-7.5v-120   C422.001,33.358,418.644,30,414.501,30z M407.001,150H259.995V45h147.006V150z"/>
	<path d="M474.501,30h-30c-4.143,0-7.5,3.358-7.5,7.5v120c0,4.142,3.357,7.5,7.5,7.5h30c4.143,0,7.5-3.358,7.5-7.5v-120   C482.001,33.358,478.644,30,474.501,30z M467.001,150h-15V45h15V150z"/>
	<path d="M474.501,180h-30c-4.143,0-7.5,3.358-7.5,7.5v120c0,4.142,3.357,7.5,7.5,7.5h30c4.143,0,7.5-3.358,7.5-7.5v-120   C482.001,183.358,478.644,180,474.501,180z M467.001,300h-15V195h15V300z"/>
	<path d="M474.501,330h-30c-4.143,0-7.5,3.358-7.5,7.5v120c0,4.142,3.357,7.5,7.5,7.5h30c4.143,0,7.5-3.358,7.5-7.5v-120   C482.001,333.358,478.644,330,474.501,330z M467.001,450h-15V345h15V450z"/>
	<path d="M282.495,135h102.006c4.143,0,7.5-3.358,7.5-7.5v-30c0-4.142-3.357-7.5-7.5-7.5H282.495c-4.143,0-7.5,3.358-7.5,7.5v30   C274.995,131.642,278.353,135,282.495,135z M289.995,105h87.006v15h-87.006V105z"/>
	<path d="M282.495,75h102.006c4.143,0,7.5-3.358,7.5-7.5s-3.357-7.5-7.5-7.5H282.495c-4.143,0-7.5,3.358-7.5,7.5   S278.353,75,282.495,75z"/>
	<path d="M414.501,180H252.495c-4.143,0-7.5,3.358-7.5,7.5v120c0,4.142,3.357,7.5,7.5,7.5h162.006c4.143,0,7.5-3.358,7.5-7.5v-120   C422.001,183.358,418.644,180,414.501,180z M407.001,300H259.995V195h147.006V300z"/>
	<path d="M282.495,285h102.006c4.143,0,7.5-3.358,7.5-7.5v-30c0-4.142-3.357-7.5-7.5-7.5H282.495c-4.143,0-7.5,3.358-7.5,7.5v30   C274.995,281.642,278.353,285,282.495,285z M289.995,255h87.006v15h-87.006V255z"/>
	<path d="M282.495,225h102.006c4.143,0,7.5-3.358,7.5-7.5s-3.357-7.5-7.5-7.5H282.495c-4.143,0-7.5,3.358-7.5,7.5   S278.353,225,282.495,225z"/>
	<path d="M414.501,330H252.495c-4.143,0-7.5,3.358-7.5,7.5v120c0,4.142,3.357,7.5,7.5,7.5h162.006c4.143,0,7.5-3.358,7.5-7.5v-120   C422.001,333.358,418.644,330,414.501,330z M407.001,450H259.995V345h147.006V450z"/>
	<path d="M282.495,435h102.006c4.143,0,7.5-3.358,7.5-7.5v-30c0-4.142-3.357-7.5-7.5-7.5H282.495c-4.143,0-7.5,3.358-7.5,7.5v30   C274.995,431.642,278.353,435,282.495,435z M289.995,405h87.006v15h-87.006V405z"/>
	<path d="M282.495,375h102.006c4.143,0,7.5-3.358,7.5-7.5s-3.357-7.5-7.5-7.5H282.495c-4.143,0-7.5,3.358-7.5,7.5   S278.353,375,282.495,375z"/>
</g>















</svg>
